<svg viewBox="0 0 800 800" preserveAspectRatio="xMidYMid meet" version="1.1" xmlns="http://www.w3.org/2000/svg" style="font: 10px sans-serif;"><g id="circle" transform="translate(400,400)"><circle r="285.7142857142857" style="fill: none;"></circle><g class="group"><title>lro:LandParcel</title><path id="group0" d="M0,-285.714A285.714,285.714,0,0,1,80.875,-274.029L74.081,-251.011A261.714,261.714,0,0,0,0,-261.714Z" style="fill: rgb(31, 119, 180);"></path><text dy=".35em" transform="rotate(-81.77849540988373)translate(287.7142857142857)">lro:LandParcel</text></g><g class="group"><title>ex:Document</title><path id="group1" d="M91.768,-270.576A285.714,285.714,0,0,1,232.273,166.379L212.762,152.403A261.714,261.714,0,0,0,84.06,-247.847Z" style="fill: rgb(255, 127, 14);"></path><text dy=".35em" transform="rotate(-17.82537980348843)translate(287.7142857142857)">ex:Document</text></g><g class="group"><title>lro:Project</title><path id="group2" d="M225.434,175.535A285.714,285.714,0,0,1,198.015,205.968L181.382,188.666A261.714,261.714,0,0,0,206.497,160.79Z" style="fill: rgb(44, 160, 44);"></path><text dy=".35em" transform="rotate(42.01698350784878)translate(287.7142857142857)">lro:Project</text></g><g class="group"><title>sosa:Observation</title><path id="group3" d="M189.62,213.721A285.714,285.714,0,0,1,-239.831,155.286L-219.685,142.242A261.714,261.714,0,0,0,173.692,195.769Z" style="fill: rgb(214, 39, 40);"></path><text dy=".35em" transform="rotate(97.74859452412778)translate(287.7142857142857)rotate(180)" style="text-anchor: end;">sosa:Observation</text></g><g class="group"><title>skos:Concept</title><path id="group4" d="M-245.849,145.571A285.714,285.714,0,0,1,-254.754,-129.356L-233.355,-118.49A261.714,261.714,0,0,0,-225.197,133.343Z" style="fill: rgb(148, 103, 189);"></path><text dy=".35em" transform="rotate(178.1447193107557)translate(287.7142857142857)rotate(180)" style="text-anchor: end;">skos:Concept</text></g><g class="group"><title>lro:SoilSample</title><path id="group5" d="M-249.378,-139.44A285.714,285.714,0,0,1,-56.763,-280.019L-51.995,-256.497A261.714,261.714,0,0,0,-228.43,-127.727Z" style="fill: rgb(140, 86, 75);"></path><text dy=".35em" transform="rotate(233.8763303270348)translate(287.7142857142857)rotate(180)" style="text-anchor: end;">lro:SoilSample</text></g><g class="group"><title>foaf:Person</title><path id="group6" d="M-45.519,-282.065L-41.696,-258.371Z" style="fill: rgb(227, 119, 194);"></path><text dy=".35em" transform="rotate(260.83267527790684)translate(287.7142857142857)rotate(180)" style="text-anchor: end;">foaf:Person</text></g><g class="group"><title>skos:ConceptScheme</title><path id="group7" d="M-34.203,-283.66L-31.33,-259.832Z" style="fill: rgb(127, 127, 127);"></path><text dy=".35em" transform="rotate(263.1245064584302)translate(287.7142857142857)rotate(180)" style="text-anchor: end;">skos:ConceptScheme</text></g><g class="group"><title>qudt:QuantityValue</title><path id="group8" d="M-22.833,-284.8L-20.915,-260.877Z" style="fill: rgb(188, 189, 34);"></path><text dy=".35em" transform="rotate(265.41633763895345)translate(287.7142857142857)rotate(180)" style="text-anchor: end;">qudt:QuantityValue</text></g><g class="group"><title>schema:Project</title><path id="group9" d="M-11.426,-285.486L-10.466,-261.505Z" style="fill: rgb(23, 190, 207);"></path><text dy=".35em" transform="rotate(267.7081688194768)translate(287.7142857142857)rotate(180)" style="text-anchor: end;">schema:Project</text></g><path class="chord" d="M206.4970921427081,160.7896709479334A261.7142857142857,261.7142857142857,0,0,1,181.38185564738197,188.66634514096856Q0,0,-233.35483707862966,-118.4900306310408Q0,0,206.4970921427081,160.7896709479334Z" style="fill: rgb(148, 103, 189); fill-opacity: 0.67; stroke: rgb(0, 0, 0); stroke-width: 0.25px; cursor: pointer;"></path><path class="chord" d="M1.6025378114556795e-14,-261.7142857142857A261.7142857142857,261.7142857142857,0,0,1,74.08123514354152,-251.01063313442737Q0,0,-233.35483707862966,-118.4900306310408Q0,0,1.6025378114556795e-14,-261.7142857142857Z" style="fill: rgb(148, 103, 189); fill-opacity: 0.67; stroke: rgb(0, 0, 0); stroke-width: 0.25px; cursor: pointer;"></path><path class="chord" d="M247.1997327215461,85.94567754887355A261.7142857142857,261.7142857142857,0,0,1,212.7617883794716,152.40337513489564Q0,0,-20.914817050217604,-260.8772465637713Q0,0,247.1997327215461,85.94567754887355Z" style="fill: rgb(188, 189, 34); fill-opacity: 0.67; stroke: rgb(0, 0, 0); stroke-width: 0.25px; cursor: pointer;"></path><path class="chord" d="M-247.90068604547716,-83.90242669387185A261.7142857142857,261.7142857142857,0,0,1,-233.35483707862966,-118.4900306310408Q0,0,-247.90068604547716,-83.90242669387185Z" style="fill: rgb(148, 103, 189); fill-opacity: 0.67; stroke: rgb(0, 0, 0); stroke-width: 0.25px; cursor: pointer;"></path><path class="chord" d="M-35.28605362495552,259.324626224575A261.7142857142857,261.7142857142857,0,0,1,-140.28407801411728,220.9405911159555Q0,0,-51.99460200236446,-256.49742437216497Q0,0,-35.28605362495552,259.324626224575Z" style="fill: rgb(140, 86, 75); fill-opacity: 0.67; stroke: rgb(0, 0, 0); stroke-width: 0.25px; cursor: pointer;"></path><path class="chord" d="M-140.28407801411728,220.9405911159555A261.7142857142857,261.7142857142857,0,0,1,-219.68497448228268,142.24232609760566Q0,0,-20.914817050217604,-260.8772465637713Q0,0,-140.28407801411728,220.9405911159555Z" style="fill: rgb(188, 189, 34); fill-opacity: 0.67; stroke: rgb(0, 0, 0); stroke-width: 0.25px; cursor: pointer;"></path><path class="chord" d="M242.76639502187314,-97.76934486342145A261.7142857142857,261.7142857142857,0,0,1,247.1997327215461,85.94567754887355Q0,0,-10.46578003284465,-261.50494220041594Q0,0,242.76639502187314,-97.76934486342145Z" style="fill: rgb(23, 190, 207); fill-opacity: 0.67; stroke: rgb(0, 0, 0); stroke-width: 0.25px; cursor: pointer;"></path><path class="chord" d="M-228.4298406661327,-127.72695580880342A261.7142857142857,261.7142857142857,0,0,1,-51.99460200236446,-256.49742437216497Q0,0,74.08123514354152,-251.01063313442737Q0,0,-228.4298406661327,-127.72695580880342Z" style="fill: rgb(31, 119, 180); fill-opacity: 0.67; stroke: rgb(0, 0, 0); stroke-width: 0.25px; cursor: pointer;"></path><path class="chord" d="M84.05972614981494,-247.84739213184574A261.7142857142857,261.7142857142857,0,0,1,242.76639502187314,-97.76934486342145Q0,0,-41.69585064532822,-258.37148330630697Q0,0,84.05972614981494,-247.84739213184574Z" style="fill: rgb(227, 119, 194); fill-opacity: 0.67; stroke: rgb(0, 0, 0); stroke-width: 0.25px; cursor: pointer;"></path><path class="chord" d="M173.6921279836171,195.76877182906767A261.7142857142857,261.7142857142857,0,0,1,-35.28605362495552,259.324626224575Q0,0,181.38185564738197,188.66634514096856Q0,0,173.6921279836171,195.76877182906767Z" style="fill: rgb(44, 160, 44); fill-opacity: 0.67; stroke: rgb(0, 0, 0); stroke-width: 0.25px; cursor: pointer;"></path><path class="chord" d="M-225.19742584831243,133.34349154807896A261.7142857142857,261.7142857142857,0,0,1,-247.90068604547716,-83.90242669387185Q0,0,-31.330394821899883,-259.832202983469Q0,0,-225.19742584831243,133.34349154807896Z" style="fill: rgb(127, 127, 127); fill-opacity: 0.67; stroke: rgb(0, 0, 0); stroke-width: 0.25px; cursor: pointer;"></path></g></svg>