<svg viewBox="0 0 800 800" preserveAspectRatio="xMidYMid meet" version="1.1" xmlns="http://www.w3.org/2000/svg" style="font: 10px sans-serif;"><g id="circle" transform="translate(400,400)"><circle r="285.7142857142857" style="fill: none;"></circle><g class="group"><title>lro:Project</title><path id="group0" d="M0,-285.714A285.714,285.714,0,0,1,259.683,-119.152L237.87,-109.144A261.714,261.714,0,0,0,0,-261.714Z" style="fill: rgb(31, 119, 180);"></path><text dy=".35em" transform="rotate(-57.32371389948687)translate(287.7142857142857)">lro:Project</text></g><g class="group"><title>lro:LandParcel</title><path id="group1" d="M264.24,-108.673A285.714,285.714,0,0,1,282.501,42.729L258.771,39.14A261.714,261.714,0,0,0,242.044,-99.544Z" style="fill: rgb(255, 127, 14);"></path><text dy=".35em" transform="rotate(-6.877355833996859)translate(287.7142857142857)">lro:LandParcel</text></g><g class="group"><title>lro:SoilSample</title><path id="group2" d="M280.566,53.992A285.714,285.714,0,0,1,116.545,260.864L106.756,238.951A261.714,261.714,0,0,0,256.999,49.456Z" style="fill: rgb(44, 160, 44);"></path><text dy=".35em" transform="rotate(38.409588636675295)translate(287.7142857142857)">lro:SoilSample</text></g><g class="group"><title>lro:Site</title><path id="group3" d="M106.02,265.316A285.714,285.714,0,0,1,-111.331,263.131L-101.979,241.028A261.714,261.714,0,0,0,97.115,243.029Z" style="fill: rgb(214, 39, 40);"></path><text dy=".35em" transform="rotate(90.57575123377131)translate(287.7142857142857)rotate(180)" style="text-anchor: end;">lro:Site</text></g><g class="group"><title>sosa:Observation</title><path id="group4" d="M-121.764,258.469A285.714,285.714,0,0,1,-262.018,113.927L-240.008,104.357A261.714,261.714,0,0,0,-111.536,236.757Z" style="fill: rgb(148, 103, 189);"></path><text dy=".35em" transform="rotate(135.86269570444344)translate(287.7142857142857)rotate(180)" style="text-anchor: end;">sosa:Observation</text></g><g class="group"><title>lro:Farm</title><path id="group5" d="M-266.364,103.358A285.714,285.714,0,0,1,-283.984,-31.398L-260.129,-28.76A261.714,261.714,0,0,0,-243.99,94.676Z" style="fill: rgb(140, 86, 75);"></path><text dy=".35em" transform="rotate(172.55061751708587)translate(287.7142857142857)rotate(180)" style="text-anchor: end;">lro:Farm</text></g><g class="group"><title>lro:Programme</title><path id="group6" d="M-282.501,-42.729A285.714,285.714,0,0,1,-249.312,-139.556L-228.37,-127.833A261.714,261.714,0,0,0,-258.771,-39.14Z" style="fill: rgb(227, 119, 194);"></path><text dy=".35em" transform="rotate(198.91971214009254)translate(287.7142857142857)rotate(180)" style="text-anchor: end;">lro:Programme</text></g><g class="group"><title>ex:Document</title><path id="group7" d="M-243.532,-149.414A285.714,285.714,0,0,1,-175.242,-225.661L-160.522,-206.705A261.714,261.714,0,0,0,-223.076,-136.864Z" style="fill: rgb(127, 127, 127);"></path><text dy=".35em" transform="rotate(221.84919769988738)translate(287.7142857142857)rotate(180)" style="text-anchor: end;">ex:Document</text></g><g class="group"><title>foaf:Person</title><path id="group8" d="M-166.078,-232.488A285.714,285.714,0,0,1,-137.036,-250.707L-125.525,-229.647A261.714,261.714,0,0,0,-152.128,-212.959Z" style="fill: rgb(188, 189, 34);"></path><text dy=".35em" transform="rotate(237.89946513325827)translate(287.7142857142857)rotate(180)" style="text-anchor: end;">foaf:Person</text></g><g class="group"><title>lro:Invoice</title><path id="group9" d="M-126.901,-255.986A285.714,285.714,0,0,1,-11.426,-285.486L-10.466,-261.505A261.714,261.714,0,0,0,-116.241,-234.483Z" style="fill: rgb(23, 190, 207);"></path><text dy=".35em" transform="rotate(255.6695370982352)translate(287.7142857142857)rotate(180)" style="text-anchor: end;">lro:Invoice</text></g><path class="chord" d="M-26.13629535172212,-260.40595502450844A261.7142857142857,261.7142857142857,0,0,1,-10.465780032844187,-261.504942200416Q0,0,-101.97902015310707,241.02831119092826Q0,0,-26.13629535172212,-260.40595502450844Z" style="fill: rgb(214, 39, 40); fill-opacity: 0.67; stroke: rgb(0, 0, 0); stroke-width: 0.25px; cursor: pointer;"></path><path class="chord" d="M214.47216584778258,-149.9868575025826A261.7142857142857,261.7142857142857,0,0,1,223.08449278801575,-136.84910092672342Q0,0,261.5966506626414,-7.8459995556164905A261.7142857142857,261.7142857142857,0,0,1,261.59614007075476,7.863004961261441Q0,0,214.47216584778258,-149.9868575025826Z" style="fill: rgb(255, 127, 14); fill-opacity: 0.67; stroke: rgb(0, 0, 0); stroke-width: 0.25px; cursor: pointer;"></path><path class="chord" d="M223.08449278801575,-136.84910092672342A261.7142857142857,261.7142857142857,0,0,1,230.89308662984172,-123.21830177974043Q0,0,160.5219129736317,206.7053042430808A261.7142857142857,261.7142857142857,0,0,1,147.8311625800241,215.96368842279307Q0,0,223.08449278801575,-136.84910092672342Z" style="fill: rgb(44, 160, 44); fill-opacity: 0.67; stroke: rgb(0, 0, 0); stroke-width: 0.25px; cursor: pointer;"></path><path class="chord" d="M230.89308662984172,-123.21830177974043A261.7142857142857,261.7142857142857,0,0,1,237.86981442128237,-109.14356936679079Q0,0,-152.12750507515,-212.959126469257A261.7142857142857,261.7142857142857,0,0,1,-139.0766693092587,-221.70261027056466Q0,0,230.89308662984172,-123.21830177974043Z" style="fill: rgb(188, 189, 34); fill-opacity: 0.67; stroke: rgb(0, 0, 0); stroke-width: 0.25px; cursor: pointer;"></path><path class="chord" d="M261.59614007075476,7.863004961261441A261.7142857142857,261.7142857142857,0,0,1,260.6531458774185,23.543680492734232Q0,0,-259.5053613521394,33.931324413207676A261.7142857142857,261.7142857142857,0,0,1,-261.0736449460082,18.300799478286294Q0,0,261.59614007075476,7.863004961261441Z" style="fill: rgb(140, 86, 75); fill-opacity: 0.67; stroke: rgb(0, 0, 0); stroke-width: 0.25px; cursor: pointer;"></path><path class="chord" d="M260.6531458774185,23.543680492734232A261.7142857142857,261.7142857142857,0,0,1,258.7710655202372,39.13953239960702Q0,0,-252.2201284231817,-69.85251724263426A261.7142857142857,261.7142857142857,0,0,1,-247.57487352539303,-84.85899684667757Q0,0,260.6531458774185,23.543680492734232Z" style="fill: rgb(227, 119, 194); fill-opacity: 0.67; stroke: rgb(0, 0, 0); stroke-width: 0.25px; cursor: pointer;"></path><path class="chord" d="M147.8311625800241,215.96368842279307A261.7142857142857,261.7142857142857,0,0,1,134.60780323248773,224.44399447493052Q0,0,-57.1553166991163,255.3970186199567A261.7142857142857,261.7142857142857,0,0,1,-72.37527129956413,251.50782781307876Q0,0,147.8311625800241,215.96368842279307Z" style="fill: rgb(214, 39, 40); fill-opacity: 0.67; stroke: rgb(0, 0, 0); stroke-width: 0.25px; cursor: pointer;"></path><path class="chord" d="M134.60780323248773,224.44399447493052A261.7142857142857,261.7142857142857,0,0,1,120.89947630423906,232.11566938985297Q0,0,-261.0736449460082,18.300799478286294A261.7142857142857,261.7142857142857,0,0,1,-261.7013273939054,2.6043400712544345Q0,0,134.60780323248773,224.44399447493052Z" style="fill: rgb(140, 86, 75); fill-opacity: 0.67; stroke: rgb(0, 0, 0); stroke-width: 0.25px; cursor: pointer;"></path><path class="chord" d="M120.89947630423906,232.11566938985297A261.7142857142857,261.7142857142857,0,0,1,106.75557041901583,238.9510735097236Q0,0,-247.57487352539303,-84.85899684667757A261.7142857142857,261.7142857142857,0,0,1,-242.03765111475977,-99.55974482585121Q0,0,120.89947630423906,232.11566938985297Z" style="fill: rgb(227, 119, 194); fill-opacity: 0.67; stroke: rgb(0, 0, 0); stroke-width: 0.25px; cursor: pointer;"></path><path class="chord" d="M-87.33447088148662,246.7124997700553A261.7142857142857,261.7142857142857,0,0,1,-101.97902015310707,241.02831119092826Q0,0,-242.03765111475977,-99.55974482585121A261.7142857142857,261.7142857142857,0,0,1,-235.62841080261103,-113.90179704278046Q0,0,-87.33447088148662,246.7124997700553Z" style="fill: rgb(227, 119, 194); fill-opacity: 0.67; stroke: rgb(0, 0, 0); stroke-width: 0.25px; cursor: pointer;"></path><path class="chord" d="M-261.7013273939054,2.6043400712544345A261.7142857142857,261.7142857142857,0,0,1,-261.3861472694433,-13.1015023022428Q0,0,-235.62841080261103,-113.90179704278046A261.7142857142857,261.7142857142857,0,0,1,-228.3702439231321,-127.83348167607704Q0,0,-261.7013273939054,2.6043400712544345Z" style="fill: rgb(227, 119, 194); fill-opacity: 0.67; stroke: rgb(0, 0, 0); stroke-width: 0.25px; cursor: pointer;"></path><path class="chord" d="M-261.3861472694433,-13.1015023022428A261.7142857142857,261.7142857142857,0,0,1,-260.12924010963235,-28.760142331428383Q0,0,-139.0766693092587,-221.70261027056466A261.7142857142857,261.7142857142857,0,0,1,-125.52476544606,-229.6473396463595Q0,0,-261.3861472694433,-13.1015023022428Z" style="fill: rgb(188, 189, 34); fill-opacity: 0.67; stroke: rgb(0, 0, 0); stroke-width: 0.25px; cursor: pointer;"></path><path class="chord" d="M-217.43354455809637,145.6606365763966A261.7142857142857,261.7142857142857,0,0,1,-240.0083599615377,104.35686127663922Q0,0,106.75557041901583,238.9510735097236Q0,0,-217.43354455809637,145.6606365763966Z" style="fill: rgb(44, 160, 44); fill-opacity: 0.67; stroke: rgb(0, 0, 0); stroke-width: 0.25px; cursor: pointer;"></path><path class="chord" d="M-253.57296015467367,64.76975548305752A261.7142857142857,261.7142857142857,0,0,1,-259.5053613521394,33.931324413207676Q0,0,-72.37527129956413,251.50782781307876A261.7142857142857,261.7142857142857,0,0,1,-87.33447088148662,246.7124997700553Q0,0,-253.57296015467367,64.76975548305752Z" style="fill: rgb(214, 39, 40); fill-opacity: 0.67; stroke: rgb(0, 0, 0); stroke-width: 0.25px; cursor: pointer;"></path><path class="chord" d="M194.9632112146413,-174.59585796866415A261.7142857142857,261.7142857142857,0,0,1,214.47216584778258,-149.9868575025826Q0,0,-243.9895402733546,94.67561240433486A261.7142857142857,261.7142857142857,0,0,1,-253.57296015467367,64.76975548305752Q0,0,194.9632112146413,-174.59585796866415Z" style="fill: rgb(140, 86, 75); fill-opacity: 0.67; stroke: rgb(0, 0, 0); stroke-width: 0.25px; cursor: pointer;"></path><path class="chord" d="M147.8452012612782,-215.9540780141716A261.7142857142857,261.7142857142857,0,0,1,194.9632112146413,-174.59585796866415Q0,0,-258.77106552023713,-39.13953239960745A261.7142857142857,261.7142857142857,0,0,1,-252.2201284231817,-69.85251724263426Q0,0,147.8452012612782,-215.9540780141716Z" style="fill: rgb(227, 119, 194); fill-opacity: 0.67; stroke: rgb(0, 0, 0); stroke-width: 0.25px; cursor: pointer;"></path><path class="chord" d="M-116.24091481210763,-234.48329806317363A261.7142857142857,261.7142857142857,0,0,1,-26.13629535172212,-260.40595502450844Q0,0,237.86981442128237,-109.14356936679079Q0,0,-116.24091481210763,-234.48329806317363Z" style="fill: rgb(31, 119, 180); fill-opacity: 0.67; stroke: rgb(0, 0, 0); stroke-width: 0.25px; cursor: pointer;"></path><path class="chord" d="M5.225431932745381,261.6621145830153A261.7142857142857,261.7142857142857,0,0,1,-57.1553166991163,255.3970186199567Q0,0,258.7736092884466,-39.12271057543367A261.7142857142857,261.7142857142857,0,0,1,261.5966506626414,-7.8459995556164905Q0,0,5.225431932745381,261.6621145830153Z" style="fill: rgb(255, 127, 14); fill-opacity: 0.67; stroke: rgb(0, 0, 0); stroke-width: 0.25px; cursor: pointer;"></path><path class="chord" d="M-223.07559626720155,-136.86360252810564A261.7142857142857,261.7142857142857,0,0,1,-160.52191297363115,-206.7053042430812Q0,0,-125.52476544606,-229.6473396463595Q0,0,-223.07559626720155,-136.86360252810564Z" style="fill: rgb(188, 189, 34); fill-opacity: 0.67; stroke: rgb(0, 0, 0); stroke-width: 0.25px; cursor: pointer;"></path><path class="chord" d="M97.11468301649882,243.0290223194418A261.7142857142857,261.7142857142857,0,0,1,5.225431932745381,261.6621145830153Q0,0,92.24296501605404,-244.91958425570178A261.7142857142857,261.7142857142857,0,0,1,147.8452012612782,-215.9540780141716Q0,0,97.11468301649882,243.0290223194418Z" style="fill: rgb(31, 119, 180); fill-opacity: 0.67; stroke: rgb(0, 0, 0); stroke-width: 0.25px; cursor: pointer;"></path><path class="chord" d="M-111.5360094988207,236.75744113336282A261.7142857142857,261.7142857142857,0,0,1,-217.43354455809637,145.6606365763966Q0,0,1.6025378114556795e-14,-261.7142857142857A261.7142857142857,261.7142857142857,0,0,1,92.24296501605404,-244.91958425570178Q0,0,-111.5360094988207,236.75744113336282Z" style="fill: rgb(31, 119, 180); fill-opacity: 0.67; stroke: rgb(0, 0, 0); stroke-width: 0.25px; cursor: pointer;"></path><path class="chord" d="M256.99891242755945,49.45630756526831A261.7142857142857,261.7142857142857,0,0,1,160.5219129736317,206.7053042430808Q0,0,242.04412261090303,-99.54401065085187A261.7142857142857,261.7142857142857,0,0,1,258.7736092884466,-39.12271057543367Q0,0,256.99891242755945,49.45630756526831Z" style="fill: rgb(255, 127, 14); fill-opacity: 0.67; stroke: rgb(0, 0, 0); stroke-width: 0.25px; cursor: pointer;"></path></g></svg>